<svg width="44" height="44" viewBox="0 0 44 44" fill="none" xmlns="http://www.w3.org/2000/svg">
<g clip-path="url(#clip0_9_67)">
<path d="M29.3333 11H34.8333C35.3196 11 35.7859 11.1932 36.1297 11.537C36.4735 11.8808 36.6667 12.3471 36.6667 12.8333V33C36.6667 33.9725 36.2804 34.9051 35.5927 35.5927C34.9051 36.2804 33.9725 36.6667 33 36.6667M33 36.6667C32.0276 36.6667 31.0949 36.2804 30.4073 35.5927C29.7197 34.9051 29.3333 33.9725 29.3333 33V9.16668C29.3333 8.68045 29.1402 8.21413 28.7964 7.87031C28.4526 7.5265 27.9862 7.33334 27.5 7.33334H9.16668C8.68045 7.33334 8.21413 7.5265 7.87031 7.87031C7.5265 8.21413 7.33334 8.68045 7.33334 9.16668V31.1667C7.33334 32.6254 7.91281 34.0243 8.94426 35.0558C9.97571 36.0872 11.3747 36.6667 12.8333 36.6667H33Z" stroke="url(#paint0_linear_9_67)" stroke-width="2" stroke-linecap="round" stroke-linejoin="round"/>
<path d="M14.6667 14.6667H22" stroke="url(#paint1_linear_9_67)" stroke-width="2" stroke-linecap="round" stroke-linejoin="round"/>
<path d="M14.6667 22H22" stroke="url(#paint2_linear_9_67)" stroke-width="2" stroke-linecap="round" stroke-linejoin="round"/>
<path d="M14.6667 29.3333H22" stroke="url(#paint3_linear_9_67)" stroke-width="2" stroke-linecap="round" stroke-linejoin="round"/>
</g>
<defs>
<linearGradient id="paint0_linear_9_67" x1="22" y1="7.33334" x2="22" y2="36.6667" gradientUnits="userSpaceOnUse">
<stop stop-color="#AF00FF"/>
<stop offset="1" stop-color="#CC00FF"/>
</linearGradient>
<linearGradient id="paint1_linear_9_67" x1="18.3333" y1="14.6667" x2="18.3333" y2="15.6667" gradientUnits="userSpaceOnUse">
<stop stop-color="#AF00FF"/>
<stop offset="1" stop-color="#CC00FF"/>
</linearGradient>
<linearGradient id="paint2_linear_9_67" x1="18.3333" y1="22" x2="18.3333" y2="23" gradientUnits="userSpaceOnUse">
<stop stop-color="#AF00FF"/>
<stop offset="1" stop-color="#CC00FF"/>
</linearGradient>
<linearGradient id="paint3_linear_9_67" x1="18.3333" y1="29.3333" x2="18.3333" y2="30.3333" gradientUnits="userSpaceOnUse">
<stop stop-color="#AF00FF"/>
<stop offset="1" stop-color="#CC00FF"/>
</linearGradient>
<clipPath id="clip0_9_67">
<rect width="44" height="44" fill="white"/>
</clipPath>
</defs>
</svg>
